{"accessors":[{"bufferView":0,"byteOffset":0,"componentType":5126,"count":24,"max":[0.5,1,0.5],"min":[-0.5,-1,-0.5],"normalized":false,"type":"VEC3"},{"bufferView":1,"byteOffset":0,"componentType":5126,"count":24,"max":[0.999969,0,0.999969,1],"min":[-0.999969,-0.007936,-1,1],"normalized":false,"type":"VEC4"},{"bufferView":2,"byteOffset":0,"componentType":5126,"count":24,"max":[1,1,1],"min":[-1,-1,-1],"normalized":false,"type":"VEC3"},{"bufferView":3,"byteOffset":0,"componentType":5126,"count":24,"max":[1,1],"min":[0,0],"normalized":false,"type":"VEC2"},{"bufferView":4,"byteOffset":0,"componentType":5125,"count":36,"max":[23],"min":[0],"normalized":false,"type":"SCALAR"}],"asset":{"generator":"Godot Engine v3.5.1.stable.official@6fed1ffa313c6760fa88b368ae580378daaef0f0","version":"2.0"},"bufferViews":[{"buffer":0,"byteLength":288,"byteOffset":0},{"buffer":0,"byteLength":384,"byteOffset":288},{"buffer":0,"byteLength":288,"byteOffset":672},{"buffer":0,"byteLength":192,"byteOffset":960},{"buffer":0,"byteLength":144,"byteOffset":1152}],"buffers":[{"byteLength":1296,"uri":"player0.bin"}],"cameras":[{"perspective":{"yfov":1.22173,"zfar":100,"znear":0.05},"type":"perspective"},{"perspective":{"yfov":1.22173,"zfar":100,"znear":0.05},"type":"perspective"}],"extensionsRequired":["KHR_texture_transform"],"extensionsUsed":["KHR_lights_punctual","KHR_texture_transform"],"meshes":[{"extras":{"targetNames":[]},"primitives":[{"attributes":{"NORMAL":2,"POSITION":0,"TANGENT":1,"TEXCOORD_0":3},"indices":4,"mode":4}]}],"nodes":[{"children":[1,2,7,9,11],"extensions":{},"name":"Player"},{"extensions":{},"name":"Body"},{"children":[3,6],"extensions":{},"name":"CameraPivot","translation":[0,0.5,0]},{"camera":0,"children":[4],"extensions":{},"name":"FPCamera"},{"children":[5],"extensions":{},"name":"SpringArm"},{"camera":1,"extensions":{},"name":"TPCamera"},{"extensions":{},"mesh":0,"name":"MeshInstance","translation":[0,-0.5,0]},{"children":[8],"extensions":{},"name":"WallDetector"},{"extensions":{},"name":"CollisionShape","translation":[0,0.24,0]},{"children":[10],"extensions":{},"name":"FloorDetector"},{"extensions":{},"name":"CollisionShape2","translation":[0,-1.29,0]},{"children":[12],"extensions":{},"name":"CeilingDetector"},{"extensions":{},"name":"CollisionShape3","translation":[0,0.8,0]}],"scene":0,"scenes":[{"nodes":[0]}]}