{"accessors":[{"bufferView":0,"byteOffset":0,"componentType":5126,"count":24,"max":[0.5,1,0.5],"min":[-0.5,-1,-0.5],"normalized":false,"type":"VEC3"},{"bufferView":1,"byteOffset":0,"componentType":5126,"count":24,"max":[0.999969,0,0.999969,1],"min":[-0.999969,-0.007936,-1,1],"normalized":false,"type":"VEC4"},{"bufferView":2,"byteOffset":0,"componentType":5126,"count":24,"max":[1,1,1],"min":[-1,-1,-1],"normalized":false,"type":"VEC3"},{"bufferView":3,"byteOffset":0,"componentType":5126,"count":24,"max":[1,1],"min":[0,0],"normalized":false,"type":"VEC2"},{"bufferView":4,"byteOffset":0,"componentType":5125,"count":36,"max":[23],"min":[0],"normalized":false,"type":"SCALAR"},{"bufferView":5,"byteOffset":0,"componentType":5126,"count":36,"max":[2.5,0.5,3.5],"min":[-2.5,-0.5,-3.5],"normalized":false,"type":"VEC3"},{"bufferView":6,"byteOffset":0,"componentType":5126,"count":36,"max":[0,0,0.015998,-1],"min":[-0.999969,-0.999872,-1,-1],"normalized":false,"type":"VEC4"},{"bufferView":7,"byteOffset":0,"componentType":5126,"count":36,"max":[1,1,1],"min":[-1,-1,-1],"normalized":false,"type":"VEC3"},{"bufferView":8,"byteOffset":0,"componentType":5126,"count":36,"max":[1,1],"min":[0,0],"normalized":false,"type":"VEC2"},{"bufferView":9,"byteOffset":0,"componentType":5125,"count":36,"max":[35],"min":[0],"normalized":false,"type":"SCALAR"},{"bufferView":10,"byteOffset":0,"componentType":5126,"count":36,"max":[15.5,3,6],"min":[-15.5,-3,-6],"normalized":false,"type":"VEC3"},{"bufferView":11,"byteOffset":0,"componentType":5126,"count":36,"max":[0,0,0.015998,-1],"min":[-0.999969,-0.999872,-1,-1],"normalized":false,"type":"VEC4"},{"bufferView":12,"byteOffset":0,"componentType":5126,"count":36,"max":[1,1,1],"min":[-1,-1,-1],"normalized":false,"type":"VEC3"},{"bufferView":13,"byteOffset":0,"componentType":5126,"count":36,"max":[1,1],"min":[0,0],"normalized":false,"type":"VEC2"},{"bufferView":14,"byteOffset":0,"componentType":5125,"count":36,"max":[35],"min":[0],"normalized":false,"type":"SCALAR"},{"bufferView":15,"byteOffset":0,"componentType":5126,"count":24,"max":[1,1,0],"min":[-2.5,0,-3],"normalized":false,"type":"VEC3"},{"bufferView":16,"byteOffset":0,"componentType":5126,"count":24,"max":[0.999969,0,-0.007936,1],"min":[-0.999969,0,-1,1],"normalized":false,"type":"VEC4"},{"bufferView":17,"byteOffset":0,"componentType":5126,"count":24,"max":[0.274708,0.961478,1],"min":[-1,-1,-1],"normalized":false,"type":"VEC3"},{"bufferView":18,"byteOffset":0,"componentType":5126,"count":24,"max":[1,1],"min":[0,0],"normalized":false,"type":"VEC2"},{"bufferView":19,"byteOffset":0,"componentType":5125,"count":24,"max":[23],"min":[0],"normalized":false,"type":"SCALAR"},{"bufferView":20,"byteOffset":0,"componentType":5126,"count":24,"max":[1,1,0],"min":[-2.5,0,-3],"normalized":false,"type":"VEC3"},{"bufferView":21,"byteOffset":0,"componentType":5126,"count":24,"max":[0.999969,0,-0.007936,1],"min":[-0.999969,0,-1,1],"normalized":false,"type":"VEC4"},{"bufferView":22,"byteOffset":0,"componentType":5126,"count":24,"max":[0.274708,0.961478,1],"min":[-1,-1,-1],"normalized":false,"type":"VEC3"},{"bufferView":23,"byteOffset":0,"componentType":5126,"count":24,"max":[1,1],"min":[0,0],"normalized":false,"type":"VEC2"},{"bufferView":24,"byteOffset":0,"componentType":5125,"count":24,"max":[23],"min":[0],"normalized":false,"type":"SCALAR"},{"bufferView":25,"byteOffset":0,"componentType":5126,"count":738,"max":[15.5,14.5,7.5],"min":[-15.5,-3.5,-17.5],"normalized":false,"type":"VEC3"},{"bufferView":26,"byteOffset":0,"componentType":5126,"count":738,"max":[0.016126,0.008063,0.999969,1],"min":[-0.999969,-0.999872,-1,-1],"normalized":false,"type":"VEC4"},{"bufferView":27,"byteOffset":0,"componentType":5126,"count":738,"max":[1,1,1],"min":[-1,-1,-1],"normalized":false,"type":"VEC3"},{"bufferView":28,"byteOffset":0,"componentType":5126,"count":738,"max":[1,1],"min":[0,0],"normalized":false,"type":"VEC2"},{"bufferView":29,"byteOffset":0,"componentType":5125,"count":738,"max":[737],"min":[0],"normalized":false,"type":"SCALAR"},{"bufferView":30,"byteOffset":0,"componentType":5126,"count":1035,"max":[11.5,6.5,7.5],"min":[-19.5,-0.5,-7.5],"normalized":false,"type":"VEC3"},{"bufferView":31,"byteOffset":0,"componentType":5126,"count":1035,"max":[0.999969,0.380233,0.924891,1],"min":[-0.999969,-0.999872,-1,-1],"normalized":false,"type":"VEC4"},{"bufferView":32,"byteOffset":0,"componentType":5126,"count":1035,"max":[1,1,1],"min":[-1,-1,-1],"normalized":false,"type":"VEC3"},{"bufferView":33,"byteOffset":0,"componentType":5126,"count":1035,"max":[1,1],"min":[0,0],"normalized":false,"type":"VEC2"},{"bufferView":34,"byteOffset":0,"componentType":5125,"count":1035,"max":[1034],"min":[0],"normalized":false,"type":"SCALAR"},{"bufferView":35,"byteOffset":0,"componentType":5126,"count":114,"max":[20.5,6.5,18.500002],"min":[-15.5,-0.5,-3.5],"normalized":false,"type":"VEC3"},{"bufferView":36,"byteOffset":0,"componentType":5126,"count":114,"max":[0.015998,0,0.999969,1],"min":[-0.999969,-0.999872,-1,-1],"normalized":false,"type":"VEC4"},{"bufferView":37,"byteOffset":0,"componentType":5126,"count":114,"max":[1,1,1],"min":[-1,-1,-1],"normalized":false,"type":"VEC3"},{"bufferView":38,"byteOffset":0,"componentType":5126,"count":114,"max":[1,1],"min":[0,0],"normalized":false,"type":"VEC2"},{"bufferView":39,"byteOffset":0,"componentType":5125,"count":114,"max":[113],"min":[0],"normalized":false,"type":"SCALAR"},{"bufferView":40,"byteOffset":0,"componentType":5126,"count":36,"max":[1,9,11],"min":[-1,-9,-11],"normalized":false,"type":"VEC3"},{"bufferView":41,"byteOffset":0,"componentType":5126,"count":36,"max":[0,0,0.015998,-1],"min":[-0.999969,-0.999872,-1,-1],"normalized":false,"type":"VEC4"},{"bufferView":42,"byteOffset":0,"componentType":5126,"count":36,"max":[1,1,1],"min":[-1,-1,-1],"normalized":false,"type":"VEC3"},{"bufferView":43,"byteOffset":0,"componentType":5126,"count":36,"max":[1,1],"min":[0,0],"normalized":false,"type":"VEC2"},{"bufferView":44,"byteOffset":0,"componentType":5125,"count":36,"max":[35],"min":[0],"normalized":false,"type":"SCALAR"},{"bufferView":45,"byteOffset":0,"componentType":5126,"count":36,"max":[1,9,7.5],"min":[-1,-9,-7.5],"normalized":false,"type":"VEC3"},{"bufferView":46,"byteOffset":0,"componentType":5126,"count":36,"max":[0,0,0.015998,-1],"min":[-0.999969,-0.999872,-1,-1],"normalized":false,"type":"VEC4"},{"bufferView":47,"byteOffset":0,"componentType":5126,"count":36,"max":[1,1,1],"min":[-1,-1,-1],"normalized":false,"type":"VEC3"},{"bufferView":48,"byteOffset":0,"componentType":5126,"count":36,"max":[1,1],"min":[0,0],"normalized":false,"type":"VEC2"},{"bufferView":49,"byteOffset":0,"componentType":5125,"count":36,"max":[35],"min":[0],"normalized":false,"type":"SCALAR"},{"bufferView":50,"byteOffset":0,"componentType":5126,"count":36,"max":[1,9,3],"min":[-1,-9,-3],"normalized":false,"type":"VEC3"},{"bufferView":51,"byteOffset":0,"componentType":5126,"count":36,"max":[0,0,0.015998,-1],"min":[-0.999969,-0.999872,-1,-1],"normalized":false,"type":"VEC4"},{"bufferView":52,"byteOffset":0,"componentType":5126,"count":36,"max":[1,1,1],"min":[-1,-1,-1],"normalized":false,"type":"VEC3"},{"bufferView":53,"byteOffset":0,"componentType":5126,"count":36,"max":[1,1],"min":[0,0],"normalized":false,"type":"VEC2"},{"bufferView":54,"byteOffset":0,"componentType":5125,"count":36,"max":[35],"min":[0],"normalized":false,"type":"SCALAR"}],"asset":{"generator":"Godot Engine v3.5.1.stable.official@6fed1ffa313c6760fa88b368ae580378daaef0f0","version":"2.0"},"bufferViews":[{"buffer":0,"byteLength":288,"byteOffset":0},{"buffer":0,"byteLength":384,"byteOffset":288},{"buffer":0,"byteLength":288,"byteOffset":672},{"buffer":0,"byteLength":192,"byteOffset":960},{"buffer":0,"byteLength":144,"byteOffset":1152},{"buffer":0,"byteLength":432,"byteOffset":1296},{"buffer":0,"byteLength":576,"byteOffset":1728},{"buffer":0,"byteLength":432,"byteOffset":2304},{"buffer":0,"byteLength":288,"byteOffset":2736},{"buffer":0,"byteLength":144,"byteOffset":3024},{"buffer":0,"byteLength":432,"byteOffset":3168},{"buffer":0,"byteLength":576,"byteOffset":3600},{"buffer":0,"byteLength":432,"byteOffset":4176},{"buffer":0,"byteLength":288,"byteOffset":4608},{"buffer":0,"byteLength":144,"byteOffset":4896},{"buffer":0,"byteLength":288,"byteOffset":5040},{"buffer":0,"byteLength":384,"byteOffset":5328},{"buffer":0,"byteLength":288,"byteOffset":5712},{"buffer":0,"byteLength":192,"byteOffset":6000},{"buffer":0,"byteLength":96,"byteOffset":6192},{"buffer":0,"byteLength":288,"byteOffset":6288},{"buffer":0,"byteLength":384,"byteOffset":6576},{"buffer":0,"byteLength":288,"byteOffset":6960},{"buffer":0,"byteLength":192,"byteOffset":7248},{"buffer":0,"byteLength":96,"byteOffset":7440},{"buffer":0,"byteLength":8856,"byteOffset":7536},{"buffer":0,"byteLength":11808,"byteOffset":16392},{"buffer":0,"byteLength":8856,"byteOffset":28200},{"buffer":0,"byteLength":5904,"byteOffset":37056},{"buffer":0,"byteLength":2952,"byteOffset":42960},{"buffer":0,"byteLength":12420,"byteOffset":45912},{"buffer":0,"byteLength":16560,"byteOffset":58332},{"buffer":0,"byteLength":12420,"byteOffset":74892},{"buffer":0,"byteLength":8280,"byteOffset":87312},{"buffer":0,"byteLength":4140,"byteOffset":95592},{"buffer":0,"byteLength":1368,"byteOffset":99732},{"buffer":0,"byteLength":1824,"byteOffset":101100},{"buffer":0,"byteLength":1368,"byteOffset":102924},{"buffer":0,"byteLength":912,"byteOffset":104292},{"buffer":0,"byteLength":456,"byteOffset":105204},{"buffer":0,"byteLength":432,"byteOffset":105660},{"buffer":0,"byteLength":576,"byteOffset":106092},{"buffer":0,"byteLength":432,"byteOffset":106668},{"buffer":0,"byteLength":288,"byteOffset":107100},{"buffer":0,"byteLength":144,"byteOffset":107388},{"buffer":0,"byteLength":432,"byteOffset":107532},{"buffer":0,"byteLength":576,"byteOffset":107964},{"buffer":0,"byteLength":432,"byteOffset":108540},{"buffer":0,"byteLength":288,"byteOffset":108972},{"buffer":0,"byteLength":144,"byteOffset":109260},{"buffer":0,"byteLength":432,"byteOffset":109404},{"buffer":0,"byteLength":576,"byteOffset":109836},{"buffer":0,"byteLength":432,"byteOffset":110412},{"buffer":0,"byteLength":288,"byteOffset":110844},{"buffer":0,"byteLength":144,"byteOffset":111132}],"buffers":[{"byteLength":111276,"uri":"twin_forts0.bin"}],"cameras":[{"perspective":{"yfov":1.22173,"zfar":100,"znear":0.05},"type":"perspective"},{"perspective":{"yfov":1.22173,"zfar":100,"znear":0.05},"type":"perspective"}],"extensions":{"KHR_lights_punctual":{"lights":[{"color":[1,0.960784,0.866667],"intensity":0.7,"range":340282346638528859811704183484516925440,"type":"directional"}]}},"extensionsRequired":["KHR_texture_transform"],"extensionsUsed":["KHR_lights_punctual","KHR_texture_transform"],"meshes":[{"extras":{"targetNames":[]},"primitives":[{"attributes":{"NORMAL":2,"POSITION":0,"TANGENT":1,"TEXCOORD_0":3},"indices":4,"mode":4}]},{"extras":{"targetNames":[]},"primitives":[{"attributes":{"NORMAL":7,"POSITION":5,"TANGENT":6,"TEXCOORD_0":8},"indices":9,"mode":4}]},{"extras":{"targetNames":[]},"primitives":[{"attributes":{"NORMAL":12,"POSITION":10,"TANGENT":11,"TEXCOORD_0":13},"indices":14,"mode":4}]},{"extras":{"targetNames":[]},"primitives":[{"attributes":{"NORMAL":17,"POSITION":15,"TANGENT":16,"TEXCOORD_0":18},"indices":19,"mode":4}]},{"extras":{"targetNames":[]},"primitives":[{"attributes":{"NORMAL":22,"POSITION":20,"TANGENT":21,"TEXCOORD_0":23},"indices":24,"mode":4}]},{"extras":{"targetNames":[]},"primitives":[{"attributes":{"NORMAL":27,"POSITION":25,"TANGENT":26,"TEXCOORD_0":28},"indices":29,"mode":4}]},{"extras":{"targetNames":[]},"primitives":[{"attributes":{"NORMAL":32,"POSITION":30,"TANGENT":31,"TEXCOORD_0":33},"indices":34,"mode":4}]},{"extras":{"targetNames":[]},"primitives":[{"attributes":{"NORMAL":37,"POSITION":35,"TANGENT":36,"TEXCOORD_0":38},"indices":39,"mode":4}]},{"extras":{"targetNames":[]},"primitives":[{"attributes":{"NORMAL":42,"POSITION":40,"TANGENT":41,"TEXCOORD_0":43},"indices":44,"mode":4}]},{"extras":{"targetNames":[]},"primitives":[{"attributes":{"NORMAL":47,"POSITION":45,"TANGENT":46,"TEXCOORD_0":48},"indices":49,"mode":4}]},{"extras":{"targetNames":[]},"primitives":[{"attributes":{"NORMAL":52,"POSITION":50,"TANGENT":51,"TEXCOORD_0":53},"indices":54,"mode":4}]}],"nodes":[{"children":[1,14,15,16,17,18,19,30,44,47,48,49],"extensions":{},"name":"TwinForts"},{"children":[2,3,8,10,12],"extensions":{},"name":"Player","translation":[0,1.59,0]},{"extensions":{},"name":"Body"},{"children":[4,7],"extensions":{},"name":"CameraPivot","translation":[0,0.5,0]},{"camera":0,"children":[5],"extensions":{},"name":"FPCamera"},{"children":[6],"extensions":{},"name":"SpringArm"},{"camera":1,"extensions":{},"name":"TPCamera"},{"extensions":{},"mesh":0,"name":"MeshInstance","translation":[0,-0.5,0]},{"children":[9],"extensions":{},"name":"WallDetector"},{"extensions":{},"name":"CollisionShape","translation":[0,0.24,0]},{"children":[11],"extensions":{},"name":"FloorDetector"},{"extensions":{},"name":"CollisionShape2","translation":[0,-1.29,0]},{"children":[13],"extensions":{},"name":"CeilingDetector"},{"extensions":{},"name":"CollisionShape3","translation":[0,0.8,0]},{"extensions":{"KHR_lights_punctual":{"light":0}},"name":"DirectionalLight","rotation":[0.92388,0,0,-0.382683],"translation":[0,25.5,0]},{"extensions":{},"mesh":1,"name":"Bridge2","translation":[0,-0.5,3.5]},{"extensions":{},"mesh":2,"name":"OutsideFloor2","translation":[0,-3,13]},{"extensions":{},"mesh":3,"name":"Ramp12","rotation":[0,0.707107,0,0.707107],"translation":[6.5,0,16.5]},{"extensions":{},"mesh":4,"name":"Ramp22","rotation":[0,0.707107,0,0.707107],"translation":[-3.5,0,16.5]},{"children":[20,21,22,23,24,25,27,28,29],"extensions":{},"mesh":5,"name":"FirstFloor2","translation":[0,-2.5,24.5]},{"extensions":{},"name":"CSGBox","translation":[0,5,-7.5]},{"extensions":{},"name":"CSGBox3","translation":[-11,5,-7.5]},{"extensions":{},"name":"CSGBox2","translation":[11,5,-7.5]},{"extensions":{},"name":"CSGBox4","translation":[0,5.5,-1.5]},{"extensions":{},"name":"CSGBox5","translation":[0,5.5,6.5]},{"children":[26],"extensions":{},"name":"CSGPolygon","rotation":[0,0.707107,0,0.707107],"translation":[-11.5,3.5,4.5]},{"extensions":{},"name":"CSGPolygon2","rotation":[0,0.707107,0,0.707107],"translation":[2,0,3]},{"extensions":{},"name":"CSGBox6","translation":[-15,6,0]},{"extensions":{},"name":"CSGBox7","translation":[15,5.5,1.5]},{"extensions":{},"name":"CSGBox8","translation":[15,8.5,-13.5]},{"children":[31,32,33,34,35,36,37,38,39,40,41,42,43],"extensions":{},"mesh":6,"name":"SecondFloor2","translation":[4,5.5,22.5]},{"extensions":{},"name":"CSGBox9","translation":[-15.5,0,-5.5]},{"extensions":{},"name":"CSGBox22","translation":[-19,3.5,0]},{"extensions":{},"name":"CSGBox32","translation":[11,3.5,0]},{"extensions":{},"name":"CSGBox42","rotation":[0,-0.707107,0,0.707107],"translation":[-12.5,3.5,-7]},{"extensions":{},"name":"CSGBox52","rotation":[0,-0.707107,0,0.707107],"translation":[-2,3.5,-3]},{"extensions":{},"name":"CSGBox62","rotation":[0,-0.707107,0,0.707107],"translation":[6.5,3.5,1]},{"extensions":{},"name":"CSGBox72","translation":[7,0,4.5]},{"extensions":{},"name":"CSGBox82","translation":[0,6,4.5]},{"extensions":{},"name":"CSGBox92","translation":[-4,6,-0.5]},{"extensions":{},"name":"CSGBox10","translation":[6.5,6,-1]},{"extensions":{},"name":"CSGBox12","translation":[-13.5,6,-4.5]},{"extensions":{},"name":"CSGBox13","translation":[-7.5,6,-5]},{"extensions":{},"name":"CSGBox11","translation":[7.5,6,-3]},{"children":[45,46],"extensions":{},"mesh":7,"name":"Pit2","translation":[0,-5.5,3.5]},{"extensions":{},"name":"CSGBox14","translation":[18,0,7.5]},{"extensions":{},"name":"CSGPolygon3","rotation":[0,0.707107,0,0.707107],"translation":[20.5,0.5,16]},{"extensions":{},"mesh":8,"name":"CSGBox16","translation":[21.5,3,11]},{"extensions":{},"mesh":9,"name":"CSGBox34","translation":[-16.5,3,7.5]},{"extensions":{},"mesh":10,"name":"CSGBox24","rotation":[0,-0.707107,0,0.707107],"translation":[18.5,3,23]}],"scene":0,"scenes":[{"nodes":[0]}]}